<?xml version="1.0" encoding="utf-8" standalone="no"?>
<!DOCTYPE svg PUBLIC "-//W3C//DTD SVG 1.1//EN"
  "http://www.w3.org/Graphics/SVG/1.1/DTD/svg11.dtd">
<!-- Created with matplotlib (http://matplotlib.org/) -->
<svg height="288pt" version="1.1" viewBox="0 0 432 288" width="432pt" xmlns="http://www.w3.org/2000/svg" xmlns:xlink="http://www.w3.org/1999/xlink">
 <defs>
  <style type="text/css">
*{stroke-linecap:butt;stroke-linejoin:round;stroke-miterlimit:100000;}
  </style>
 </defs>
 <g id="figure_1">
  <g id="patch_1">
   <path d="M 0 288 
L 432 288 
L 432 0 
L 0 0 
z
" style="fill:#ffffff;"/>
  </g>
  <g id="axes_1">
   <g id="patch_2">
    <path d="M 55.3 248.2 
L 411.6375 248.2 
L 411.6375 25.8 
L 55.3 25.8 
z
" style="fill:#ffffff;"/>
   </g>
   <g id="PathCollection_1">
    <defs>
     <path d="M 0 2.236068 
C 0.593012 2.236068 1.161816 2.000462 1.581139 1.581139 
C 2.000462 1.161816 2.236068 0.593012 2.236068 0 
C 2.236068 -0.593012 2.000462 -1.161816 1.581139 -1.581139 
C 1.161816 -2.000462 0.593012 -2.236068 0 -2.236068 
C -0.593012 -2.236068 -1.161816 -2.000462 -1.581139 -1.581139 
C -2.000462 -1.161816 -2.236068 -0.593012 -2.236068 0 
C -2.236068 0.593012 -2.000462 1.161816 -1.581139 1.581139 
C -1.161816 2.000462 -0.593012 2.236068 0 2.236068 
z
" id="m4c98105c93" style="stroke:#000000;"/>
    </defs>
    <g clip-path="url(#p8cdad4bb98)">
     <use style="fill:#0000ff;stroke:#000000;" x="106.205357143" xlink:href="#m4c98105c93" y="185.742666667"/>
     <use style="fill:#0000ff;stroke:#000000;" x="108.750625" xlink:href="#m4c98105c93" y="193.156"/>
     <use style="fill:#0000ff;stroke:#000000;" x="111.295892857" xlink:href="#m4c98105c93" y="169.062666667"/>
     <use style="fill:#0000ff;stroke:#000000;" x="113.841160714" xlink:href="#m4c98105c93" y="91.408"/>
     <use style="fill:#0000ff;stroke:#000000;" x="116.386428571" xlink:href="#m4c98105c93" y="228.184"/>
     <use style="fill:#0000ff;stroke:#000000;" x="118.931696429" xlink:href="#m4c98105c93" y="142.374666667"/>
     <use style="fill:#0000ff;stroke:#000000;" x="121.476964286" xlink:href="#m4c98105c93" y="101.416"/>
     <use style="fill:#0000ff;stroke:#000000;" x="124.022232143" xlink:href="#m4c98105c93" y="85.6626666667"/>
     <use style="fill:#0000ff;stroke:#000000;" x="126.5675" xlink:href="#m4c98105c93" y="229.852"/>
     <use style="fill:#0000ff;stroke:#000000;" x="129.112767857" xlink:href="#m4c98105c93" y="85.292"/>
     <use style="fill:#0000ff;stroke:#000000;" x="131.658035714" xlink:href="#m4c98105c93" y="190.561333333"/>
     <use style="fill:#0000ff;stroke:#000000;" x="134.203303571" xlink:href="#m4c98105c93" y="125.138666667"/>
     <use style="fill:#0000ff;stroke:#000000;" x="136.748571429" xlink:href="#m4c98105c93" y="237.450666667"/>
     <use style="fill:#0000ff;stroke:#000000;" x="139.293839286" xlink:href="#m4c98105c93" y="217.62"/>
     <use style="fill:#0000ff;stroke:#000000;" x="141.839107143" xlink:href="#m4c98105c93" y="76.2106666667"/>
     <use style="fill:#0000ff;stroke:#000000;" x="144.384375" xlink:href="#m4c98105c93" y="136.814666667"/>
     <use style="fill:#0000ff;stroke:#000000;" x="146.929642857" xlink:href="#m4c98105c93" y="214.284"/>
     <use style="fill:#0000ff;stroke:#000000;" x="149.474910714" xlink:href="#m4c98105c93" y="80.6586666667"/>
     <use style="fill:#0000ff;stroke:#000000;" x="152.020178571" xlink:href="#m4c98105c93" y="124.026666667"/>
     <use style="fill:#0000ff;stroke:#000000;" x="154.565446429" xlink:href="#m4c98105c93" y="168.321333333"/>
     <use style="fill:#0000ff;stroke:#000000;" x="157.110714286" xlink:href="#m4c98105c93" y="157.757333333"/>
     <use style="fill:#0000ff;stroke:#000000;" x="159.655982143" xlink:href="#m4c98105c93" y="235.041333333"/>
     <use style="fill:#0000ff;stroke:#000000;" x="162.20125" xlink:href="#m4c98105c93" y="202.978666667"/>
     <use style="fill:#0000ff;stroke:#000000;" x="164.746517857" xlink:href="#m4c98105c93" y="111.98"/>
     <use style="fill:#0000ff;stroke:#000000;" x="167.291785714" xlink:href="#m4c98105c93" y="143.672"/>
     <use style="fill:#0000ff;stroke:#000000;" x="169.837053571" xlink:href="#m4c98105c93" y="114.389333333"/>
     <use style="fill:#0000ff;stroke:#000000;" x="172.382321429" xlink:href="#m4c98105c93" y="64.3493333333"/>
     <use style="fill:#0000ff;stroke:#000000;" x="174.927589286" xlink:href="#m4c98105c93" y="162.205333333"/>
     <use style="fill:#0000ff;stroke:#000000;" x="177.472857143" xlink:href="#m4c98105c93" y="82.6973333333"/>
     <use style="fill:#0000ff;stroke:#000000;" x="180.018125" xlink:href="#m4c98105c93" y="98.08"/>
     <use style="fill:#0000ff;stroke:#000000;" x="182.563392857" xlink:href="#m4c98105c93" y="147.193333333"/>
     <use style="fill:#0000ff;stroke:#000000;" x="185.108660714" xlink:href="#m4c98105c93" y="132.181333333"/>
     <use style="fill:#0000ff;stroke:#000000;" x="187.653928571" xlink:href="#m4c98105c93" y="109.014666667"/>
     <use style="fill:#0000ff;stroke:#000000;" x="190.199196429" xlink:href="#m4c98105c93" y="217.805333333"/>
     <use style="fill:#0000ff;stroke:#000000;" x="192.744464286" xlink:href="#m4c98105c93" y="110.682666667"/>
     <use style="fill:#0000ff;stroke:#000000;" x="195.289732143" xlink:href="#m4c98105c93" y="145.154666667"/>
     <use style="fill:#0000ff;stroke:#000000;" x="197.835" xlink:href="#m4c98105c93" y="116.798666667"/>
     <use style="fill:#0000ff;stroke:#000000;" x="200.380267857" xlink:href="#m4c98105c93" y="116.428"/>
     <use style="fill:#0000ff;stroke:#000000;" x="202.925535714" xlink:href="#m4c98105c93" y="167.209333333"/>
     <use style="fill:#0000ff;stroke:#000000;" x="205.470803571" xlink:href="#m4c98105c93" y="80.4733333333"/>
     <use style="fill:#0000ff;stroke:#000000;" x="208.016071429" xlink:href="#m4c98105c93" y="172.398666667"/>
     <use style="fill:#0000ff;stroke:#000000;" x="210.561339286" xlink:href="#m4c98105c93" y="202.422666667"/>
     <use style="fill:#0000ff;stroke:#000000;" x="213.106607143" xlink:href="#m4c98105c93" y="63.4226666667"/>
     <use style="fill:#0000ff;stroke:#000000;" x="215.651875" xlink:href="#m4c98105c93" y="117.54"/>
     <use style="fill:#0000ff;stroke:#000000;" x="218.197142857" xlink:href="#m4c98105c93" y="79.732"/>
     <use style="fill:#0000ff;stroke:#000000;" x="220.742410714" xlink:href="#m4c98105c93" y="219.473333333"/>
     <use style="fill:#0000ff;stroke:#000000;" x="223.287678571" xlink:href="#m4c98105c93" y="204.276"/>
     <use style="fill:#0000ff;stroke:#000000;" x="225.832946429" xlink:href="#m4c98105c93" y="92.1493333333"/>
     <use style="fill:#0000ff;stroke:#000000;" x="228.378214286" xlink:href="#m4c98105c93" y="227.442666667"/>
     <use style="fill:#0000ff;stroke:#000000;" x="230.923482143" xlink:href="#m4c98105c93" y="192.229333333"/>
     <use style="fill:#0000ff;stroke:#000000;" x="233.46875" xlink:href="#m4c98105c93" y="209.28"/>
     <use style="fill:#0000ff;stroke:#000000;" x="236.014017857" xlink:href="#m4c98105c93" y="179.997333333"/>
     <use style="fill:#0000ff;stroke:#000000;" x="238.559285714" xlink:href="#m4c98105c93" y="123.470666667"/>
     <use style="fill:#0000ff;stroke:#000000;" x="241.104553571" xlink:href="#m4c98105c93" y="193.526666667"/>
     <use style="fill:#0000ff;stroke:#000000;" x="243.649821429" xlink:href="#m4c98105c93" y="96.412"/>
     <use style="fill:#0000ff;stroke:#000000;" x="246.195089286" xlink:href="#m4c98105c93" y="189.078666667"/>
     <use style="fill:#0000ff;stroke:#000000;" x="248.740357143" xlink:href="#m4c98105c93" y="216.693333333"/>
     <use style="fill:#0000ff;stroke:#000000;" x="251.285625" xlink:href="#m4c98105c93" y="115.686666667"/>
     <use style="fill:#0000ff;stroke:#000000;" x="253.830892857" xlink:href="#m4c98105c93" y="66.944"/>
     <use style="fill:#0000ff;stroke:#000000;" x="256.376160714" xlink:href="#m4c98105c93" y="89.3693333333"/>
     <use style="fill:#0000ff;stroke:#000000;" x="258.921428571" xlink:href="#m4c98105c93" y="106.234666667"/>
     <use style="fill:#0000ff;stroke:#000000;" x="261.466696429" xlink:href="#m4c98105c93" y="144.784"/>
     <use style="fill:#0000ff;stroke:#000000;" x="264.011964286" xlink:href="#m4c98105c93" y="121.802666667"/>
     <use style="fill:#0000ff;stroke:#000000;" x="266.557232143" xlink:href="#m4c98105c93" y="141.262666667"/>
     <use style="fill:#0000ff;stroke:#000000;" x="269.1025" xlink:href="#m4c98105c93" y="214.654666667"/>
     <use style="fill:#0000ff;stroke:#000000;" x="271.647767857" xlink:href="#m4c98105c93" y="221.512"/>
     <use style="fill:#0000ff;stroke:#000000;" x="274.193035714" xlink:href="#m4c98105c93" y="65.832"/>
     <use style="fill:#0000ff;stroke:#000000;" x="276.738303571" xlink:href="#m4c98105c93" y="104.381333333"/>
     <use style="fill:#0000ff;stroke:#000000;" x="279.283571429" xlink:href="#m4c98105c93" y="227.072"/>
     <use style="fill:#0000ff;stroke:#000000;" x="281.828839286" xlink:href="#m4c98105c93" y="187.04"/>
     <use style="fill:#0000ff;stroke:#000000;" x="284.374107143" xlink:href="#m4c98105c93" y="188.152"/>
     <use style="fill:#0000ff;stroke:#000000;" x="286.919375" xlink:href="#m4c98105c93" y="212.801333333"/>
     <use style="fill:#0000ff;stroke:#000000;" x="289.464642857" xlink:href="#m4c98105c93" y="114.204"/>
     <use style="fill:#0000ff;stroke:#000000;" x="292.009910714" xlink:href="#m4c98105c93" y="181.294666667"/>
     <use style="fill:#0000ff;stroke:#000000;" x="294.555178571" xlink:href="#m4c98105c93" y="204.832"/>
     <use style="fill:#0000ff;stroke:#000000;" x="297.100446429" xlink:href="#m4c98105c93" y="163.132"/>
     <use style="fill:#0000ff;stroke:#000000;" x="299.645714286" xlink:href="#m4c98105c93" y="237.821333333"/>
     <use style="fill:#0000ff;stroke:#000000;" x="302.190982143" xlink:href="#m4c98105c93" y="82.8826666667"/>
     <use style="fill:#0000ff;stroke:#000000;" x="304.73625" xlink:href="#m4c98105c93" y="183.148"/>
     <use style="fill:#0000ff;stroke:#000000;" x="307.281517857" xlink:href="#m4c98105c93" y="111.053333333"/>
     <use style="fill:#0000ff;stroke:#000000;" x="309.826785714" xlink:href="#m4c98105c93" y="106.049333333"/>
     <use style="fill:#0000ff;stroke:#000000;" x="312.372053571" xlink:href="#m4c98105c93" y="144.598666667"/>
     <use style="fill:#0000ff;stroke:#000000;" x="314.917321429" xlink:href="#m4c98105c93" y="201.866666667"/>
     <use style="fill:#0000ff;stroke:#000000;" x="317.462589286" xlink:href="#m4c98105c93" y="196.492"/>
     <use style="fill:#0000ff;stroke:#000000;" x="320.007857143" xlink:href="#m4c98105c93" y="75.0986666667"/>
     <use style="fill:#0000ff;stroke:#000000;" x="322.553125" xlink:href="#m4c98105c93" y="127.733333333"/>
     <use style="fill:#0000ff;stroke:#000000;" x="325.098392857" xlink:href="#m4c98105c93" y="126.992"/>
     <use style="fill:#0000ff;stroke:#000000;" x="327.643660714" xlink:href="#m4c98105c93" y="71.0213333333"/>
     <use style="fill:#0000ff;stroke:#000000;" x="330.188928571" xlink:href="#m4c98105c93" y="159.054666667"/>
     <use style="fill:#0000ff;stroke:#000000;" x="332.734196429" xlink:href="#m4c98105c93" y="191.117333333"/>
     <use style="fill:#0000ff;stroke:#000000;" x="335.279464286" xlink:href="#m4c98105c93" y="218.361333333"/>
     <use style="fill:#0000ff;stroke:#000000;" x="337.824732143" xlink:href="#m4c98105c93" y="76.5813333333"/>
     <use style="fill:#0000ff;stroke:#000000;" x="340.37" xlink:href="#m4c98105c93" y="135.702666667"/>
     <use style="fill:#0000ff;stroke:#000000;" x="342.915267857" xlink:href="#m4c98105c93" y="211.318666667"/>
     <use style="fill:#0000ff;stroke:#000000;" x="345.460535714" xlink:href="#m4c98105c93" y="223.921333333"/>
     <use style="fill:#0000ff;stroke:#000000;" x="348.005803571" xlink:href="#m4c98105c93" y="133.478666667"/>
     <use style="fill:#0000ff;stroke:#000000;" x="350.551071429" xlink:href="#m4c98105c93" y="147.564"/>
     <use style="fill:#0000ff;stroke:#000000;" x="353.096339286" xlink:href="#m4c98105c93" y="74.5426666667"/>
     <use style="fill:#0000ff;stroke:#000000;" x="355.641607143" xlink:href="#m4c98105c93" y="83.9946666667"/>
     <use style="fill:#0000ff;stroke:#000000;" x="358.186875" xlink:href="#m4c98105c93" y="197.789333333"/>
    </g>
   </g>
   <g id="line2d_1">
    <path clip-path="url(#p8cdad4bb98)" d="M 106.205357 149.294059 
L 108.750625 149.301866 
L 111.295893 149.309673 
L 113.841161 149.31748 
L 116.386429 149.325287 
L 118.931696 149.333094 
L 121.476964 149.340901 
L 124.022232 149.348708 
L 126.5675 149.356515 
L 129.112768 149.364322 
L 131.658036 149.372129 
L 134.203304 149.379936 
L 136.748571 149.387743 
L 139.293839 149.39555 
L 141.839107 149.403357 
L 144.384375 149.411164 
L 146.929643 149.418971 
L 149.474911 149.426778 
L 152.020179 149.434586 
L 154.565446 149.442393 
L 157.110714 149.4502 
L 159.655982 149.458007 
L 162.20125 149.465814 
L 164.746518 149.473621 
L 167.291786 149.481428 
L 169.837054 149.489235 
L 172.382321 149.497042 
L 174.927589 149.504849 
L 177.472857 149.512656 
L 180.018125 149.520463 
L 182.563393 149.52827 
L 185.108661 149.536077 
L 187.653929 149.543884 
L 190.199196 149.551691 
L 192.744464 149.559498 
L 195.289732 149.567305 
L 197.835 149.575112 
L 200.380268 149.582919 
L 202.925536 149.590726 
L 205.470804 149.598533 
L 208.016071 149.60634 
L 210.561339 149.614147 
L 213.106607 149.621954 
L 215.651875 149.629761 
L 218.197143 149.637568 
L 220.742411 149.645375 
L 223.287679 149.653182 
L 225.832946 149.660989 
L 228.378214 149.668796 
L 230.923482 149.676603 
L 233.46875 149.68441 
L 236.014018 149.692217 
L 238.559286 149.700024 
L 241.104554 149.707831 
L 243.649821 149.715638 
L 246.195089 149.723445 
L 248.740357 149.731252 
L 251.285625 149.739059 
L 253.830893 149.746866 
L 256.376161 149.754673 
L 258.921429 149.76248 
L 261.466696 149.770287 
L 264.011964 149.778094 
L 266.557232 149.785901 
L 269.1025 149.793708 
L 271.647768 149.801515 
L 274.193036 149.809323 
L 276.738304 149.81713 
L 279.283571 149.824937 
L 281.828839 149.832744 
L 284.374107 149.840551 
L 286.919375 149.848358 
L 289.464643 149.856165 
L 292.009911 149.863972 
L 294.555179 149.871779 
L 297.100446 149.879586 
L 299.645714 149.887393 
L 302.190982 149.8952 
L 304.73625 149.903007 
L 307.281518 149.910814 
L 309.826786 149.918621 
L 312.372054 149.926428 
L 314.917321 149.934235 
L 317.462589 149.942042 
L 320.007857 149.949849 
L 322.553125 149.957656 
L 325.098393 149.965463 
L 327.643661 149.97327 
L 330.188929 149.981077 
L 332.734196 149.988884 
L 335.279464 149.996691 
L 337.824732 150.004498 
L 340.37 150.012305 
L 342.915268 150.020112 
L 345.460536 150.027919 
L 348.005804 150.035726 
L 350.551071 150.043533 
L 353.096339 150.05134 
L 355.641607 150.059147 
L 358.186875 150.066954 
" style="fill:none;stroke:#0000ff;stroke-linecap:square;"/>
   </g>
   <g id="patch_3">
    <path d="M 411.6375 248.2 
L 411.6375 25.8 
" style="fill:none;stroke:#000000;stroke-linecap:square;stroke-linejoin:miter;"/>
   </g>
   <g id="patch_4">
    <path d="M 55.3 25.8 
L 411.6375 25.8 
" style="fill:none;stroke:#000000;stroke-linecap:square;stroke-linejoin:miter;"/>
   </g>
   <g id="patch_5">
    <path d="M 55.3 248.2 
L 411.6375 248.2 
" style="fill:none;stroke:#000000;stroke-linecap:square;stroke-linejoin:miter;"/>
   </g>
   <g id="patch_6">
    <path d="M 55.3 248.2 
L 55.3 25.8 
" style="fill:none;stroke:#000000;stroke-linecap:square;stroke-linejoin:miter;"/>
   </g>
   <g id="matplotlib.axis_1">
    <g id="xtick_1">
     <g id="line2d_2">
      <defs>
       <path d="M 0 0 
L 0 -4 
" id="m6bfa60cf5b" style="stroke:#000000;stroke-width:0.5;"/>
      </defs>
      <g>
       <use style="stroke:#000000;stroke-width:0.5;" x="55.3" xlink:href="#m6bfa60cf5b" y="248.2"/>
      </g>
     </g>
     <g id="line2d_3">
      <defs>
       <path d="M 0 0 
L 0 4 
" id="m067f28e7d1" style="stroke:#000000;stroke-width:0.5;"/>
      </defs>
      <g>
       <use style="stroke:#000000;stroke-width:0.5;" x="55.3" xlink:href="#m067f28e7d1" y="25.8"/>
      </g>
     </g>
     <g id="text_1">
      <!-- −20 -->
      <defs>
       <path d="M 10.59375 35.5 
L 73.1875 35.5 
L 73.1875 27.203125 
L 10.59375 27.203125 
z
" id="BitstreamVeraSans-Roman-2212"/>
       <path d="M 19.1875 8.296875 
L 53.609375 8.296875 
L 53.609375 0 
L 7.328125 0 
L 7.328125 8.296875 
Q 12.9375 14.109375 22.625 23.890625 
Q 32.328125 33.6875 34.8125 36.53125 
Q 39.546875 41.84375 41.421875 45.53125 
Q 43.3125 49.21875 43.3125 52.78125 
Q 43.3125 58.59375 39.234375 62.25 
Q 35.15625 65.921875 28.609375 65.921875 
Q 23.96875 65.921875 18.8125 64.3125 
Q 13.671875 62.703125 7.8125 59.421875 
L 7.8125 69.390625 
Q 13.765625 71.78125 18.9375 73 
Q 24.125 74.21875 28.421875 74.21875 
Q 39.75 74.21875 46.484375 68.546875 
Q 53.21875 62.890625 53.21875 53.421875 
Q 53.21875 48.921875 51.53125 44.890625 
Q 49.859375 40.875 45.40625 35.40625 
Q 44.1875 33.984375 37.640625 27.21875 
Q 31.109375 20.453125 19.1875 8.296875 
" id="BitstreamVeraSans-Roman-32"/>
       <path d="M 31.78125 66.40625 
Q 24.171875 66.40625 20.328125 58.90625 
Q 16.5 51.421875 16.5 36.375 
Q 16.5 21.390625 20.328125 13.890625 
Q 24.171875 6.390625 31.78125 6.390625 
Q 39.453125 6.390625 43.28125 13.890625 
Q 47.125 21.390625 47.125 36.375 
Q 47.125 51.421875 43.28125 58.90625 
Q 39.453125 66.40625 31.78125 66.40625 
M 31.78125 74.21875 
Q 44.046875 74.21875 50.515625 64.515625 
Q 56.984375 54.828125 56.984375 36.375 
Q 56.984375 17.96875 50.515625 8.265625 
Q 44.046875 -1.421875 31.78125 -1.421875 
Q 19.53125 -1.421875 13.0625 8.265625 
Q 6.59375 17.96875 6.59375 36.375 
Q 6.59375 54.828125 13.0625 64.515625 
Q 19.53125 74.21875 31.78125 74.21875 
" id="BitstreamVeraSans-Roman-30"/>
      </defs>
      <g transform="translate(44.74765625 259.7984375)scale(0.1 -0.1)">
       <use xlink:href="#BitstreamVeraSans-Roman-2212"/>
       <use x="83.7890625" xlink:href="#BitstreamVeraSans-Roman-32"/>
       <use x="147.412109375" xlink:href="#BitstreamVeraSans-Roman-30"/>
      </g>
     </g>
    </g>
    <g id="xtick_2">
     <g id="line2d_4">
      <g>
       <use style="stroke:#000000;stroke-width:0.5;" x="106.205357143" xlink:href="#m6bfa60cf5b" y="248.2"/>
      </g>
     </g>
     <g id="line2d_5">
      <g>
       <use style="stroke:#000000;stroke-width:0.5;" x="106.205357143" xlink:href="#m067f28e7d1" y="25.8"/>
      </g>
     </g>
     <g id="text_2">
      <!-- 0 -->
      <g transform="translate(103.024107143 259.7984375)scale(0.1 -0.1)">
       <use xlink:href="#BitstreamVeraSans-Roman-30"/>
      </g>
     </g>
    </g>
    <g id="xtick_3">
     <g id="line2d_6">
      <g>
       <use style="stroke:#000000;stroke-width:0.5;" x="157.110714286" xlink:href="#m6bfa60cf5b" y="248.2"/>
      </g>
     </g>
     <g id="line2d_7">
      <g>
       <use style="stroke:#000000;stroke-width:0.5;" x="157.110714286" xlink:href="#m067f28e7d1" y="25.8"/>
      </g>
     </g>
     <g id="text_3">
      <!-- 20 -->
      <g transform="translate(150.748214286 259.7984375)scale(0.1 -0.1)">
       <use xlink:href="#BitstreamVeraSans-Roman-32"/>
       <use x="63.623046875" xlink:href="#BitstreamVeraSans-Roman-30"/>
      </g>
     </g>
    </g>
    <g id="xtick_4">
     <g id="line2d_8">
      <g>
       <use style="stroke:#000000;stroke-width:0.5;" x="208.016071429" xlink:href="#m6bfa60cf5b" y="248.2"/>
      </g>
     </g>
     <g id="line2d_9">
      <g>
       <use style="stroke:#000000;stroke-width:0.5;" x="208.016071429" xlink:href="#m067f28e7d1" y="25.8"/>
      </g>
     </g>
     <g id="text_4">
      <!-- 40 -->
      <defs>
       <path d="M 37.796875 64.3125 
L 12.890625 25.390625 
L 37.796875 25.390625 
z
M 35.203125 72.90625 
L 47.609375 72.90625 
L 47.609375 25.390625 
L 58.015625 25.390625 
L 58.015625 17.1875 
L 47.609375 17.1875 
L 47.609375 0 
L 37.796875 0 
L 37.796875 17.1875 
L 4.890625 17.1875 
L 4.890625 26.703125 
z
" id="BitstreamVeraSans-Roman-34"/>
      </defs>
      <g transform="translate(201.653571429 259.7984375)scale(0.1 -0.1)">
       <use xlink:href="#BitstreamVeraSans-Roman-34"/>
       <use x="63.623046875" xlink:href="#BitstreamVeraSans-Roman-30"/>
      </g>
     </g>
    </g>
    <g id="xtick_5">
     <g id="line2d_10">
      <g>
       <use style="stroke:#000000;stroke-width:0.5;" x="258.921428571" xlink:href="#m6bfa60cf5b" y="248.2"/>
      </g>
     </g>
     <g id="line2d_11">
      <g>
       <use style="stroke:#000000;stroke-width:0.5;" x="258.921428571" xlink:href="#m067f28e7d1" y="25.8"/>
      </g>
     </g>
     <g id="text_5">
      <!-- 60 -->
      <defs>
       <path d="M 33.015625 40.375 
Q 26.375 40.375 22.484375 35.828125 
Q 18.609375 31.296875 18.609375 23.390625 
Q 18.609375 15.53125 22.484375 10.953125 
Q 26.375 6.390625 33.015625 6.390625 
Q 39.65625 6.390625 43.53125 10.953125 
Q 47.40625 15.53125 47.40625 23.390625 
Q 47.40625 31.296875 43.53125 35.828125 
Q 39.65625 40.375 33.015625 40.375 
M 52.59375 71.296875 
L 52.59375 62.3125 
Q 48.875 64.0625 45.09375 64.984375 
Q 41.3125 65.921875 37.59375 65.921875 
Q 27.828125 65.921875 22.671875 59.328125 
Q 17.53125 52.734375 16.796875 39.40625 
Q 19.671875 43.65625 24.015625 45.921875 
Q 28.375 48.1875 33.59375 48.1875 
Q 44.578125 48.1875 50.953125 41.515625 
Q 57.328125 34.859375 57.328125 23.390625 
Q 57.328125 12.15625 50.6875 5.359375 
Q 44.046875 -1.421875 33.015625 -1.421875 
Q 20.359375 -1.421875 13.671875 8.265625 
Q 6.984375 17.96875 6.984375 36.375 
Q 6.984375 53.65625 15.1875 63.9375 
Q 23.390625 74.21875 37.203125 74.21875 
Q 40.921875 74.21875 44.703125 73.484375 
Q 48.484375 72.75 52.59375 71.296875 
" id="BitstreamVeraSans-Roman-36"/>
      </defs>
      <g transform="translate(252.558928571 259.7984375)scale(0.1 -0.1)">
       <use xlink:href="#BitstreamVeraSans-Roman-36"/>
       <use x="63.623046875" xlink:href="#BitstreamVeraSans-Roman-30"/>
      </g>
     </g>
    </g>
    <g id="xtick_6">
     <g id="line2d_12">
      <g>
       <use style="stroke:#000000;stroke-width:0.5;" x="309.826785714" xlink:href="#m6bfa60cf5b" y="248.2"/>
      </g>
     </g>
     <g id="line2d_13">
      <g>
       <use style="stroke:#000000;stroke-width:0.5;" x="309.826785714" xlink:href="#m067f28e7d1" y="25.8"/>
      </g>
     </g>
     <g id="text_6">
      <!-- 80 -->
      <defs>
       <path d="M 31.78125 34.625 
Q 24.75 34.625 20.71875 30.859375 
Q 16.703125 27.09375 16.703125 20.515625 
Q 16.703125 13.921875 20.71875 10.15625 
Q 24.75 6.390625 31.78125 6.390625 
Q 38.8125 6.390625 42.859375 10.171875 
Q 46.921875 13.96875 46.921875 20.515625 
Q 46.921875 27.09375 42.890625 30.859375 
Q 38.875 34.625 31.78125 34.625 
M 21.921875 38.8125 
Q 15.578125 40.375 12.03125 44.71875 
Q 8.5 49.078125 8.5 55.328125 
Q 8.5 64.0625 14.71875 69.140625 
Q 20.953125 74.21875 31.78125 74.21875 
Q 42.671875 74.21875 48.875 69.140625 
Q 55.078125 64.0625 55.078125 55.328125 
Q 55.078125 49.078125 51.53125 44.71875 
Q 48 40.375 41.703125 38.8125 
Q 48.828125 37.15625 52.796875 32.3125 
Q 56.78125 27.484375 56.78125 20.515625 
Q 56.78125 9.90625 50.3125 4.234375 
Q 43.84375 -1.421875 31.78125 -1.421875 
Q 19.734375 -1.421875 13.25 4.234375 
Q 6.78125 9.90625 6.78125 20.515625 
Q 6.78125 27.484375 10.78125 32.3125 
Q 14.796875 37.15625 21.921875 38.8125 
M 18.3125 54.390625 
Q 18.3125 48.734375 21.84375 45.5625 
Q 25.390625 42.390625 31.78125 42.390625 
Q 38.140625 42.390625 41.71875 45.5625 
Q 45.3125 48.734375 45.3125 54.390625 
Q 45.3125 60.0625 41.71875 63.234375 
Q 38.140625 66.40625 31.78125 66.40625 
Q 25.390625 66.40625 21.84375 63.234375 
Q 18.3125 60.0625 18.3125 54.390625 
" id="BitstreamVeraSans-Roman-38"/>
      </defs>
      <g transform="translate(303.464285714 259.7984375)scale(0.1 -0.1)">
       <use xlink:href="#BitstreamVeraSans-Roman-38"/>
       <use x="63.623046875" xlink:href="#BitstreamVeraSans-Roman-30"/>
      </g>
     </g>
    </g>
    <g id="xtick_7">
     <g id="line2d_14">
      <g>
       <use style="stroke:#000000;stroke-width:0.5;" x="360.732142857" xlink:href="#m6bfa60cf5b" y="248.2"/>
      </g>
     </g>
     <g id="line2d_15">
      <g>
       <use style="stroke:#000000;stroke-width:0.5;" x="360.732142857" xlink:href="#m067f28e7d1" y="25.8"/>
      </g>
     </g>
     <g id="text_7">
      <!-- 100 -->
      <defs>
       <path d="M 12.40625 8.296875 
L 28.515625 8.296875 
L 28.515625 63.921875 
L 10.984375 60.40625 
L 10.984375 69.390625 
L 28.421875 72.90625 
L 38.28125 72.90625 
L 38.28125 8.296875 
L 54.390625 8.296875 
L 54.390625 0 
L 12.40625 0 
z
" id="BitstreamVeraSans-Roman-31"/>
      </defs>
      <g transform="translate(351.188392857 259.7984375)scale(0.1 -0.1)">
       <use xlink:href="#BitstreamVeraSans-Roman-31"/>
       <use x="63.623046875" xlink:href="#BitstreamVeraSans-Roman-30"/>
       <use x="127.24609375" xlink:href="#BitstreamVeraSans-Roman-30"/>
      </g>
     </g>
    </g>
    <g id="xtick_8">
     <g id="line2d_16">
      <g>
       <use style="stroke:#000000;stroke-width:0.5;" x="411.6375" xlink:href="#m6bfa60cf5b" y="248.2"/>
      </g>
     </g>
     <g id="line2d_17">
      <g>
       <use style="stroke:#000000;stroke-width:0.5;" x="411.6375" xlink:href="#m067f28e7d1" y="25.8"/>
      </g>
     </g>
     <g id="text_8">
      <!-- 120 -->
      <g transform="translate(402.09375 259.7984375)scale(0.1 -0.1)">
       <use xlink:href="#BitstreamVeraSans-Roman-31"/>
       <use x="63.623046875" xlink:href="#BitstreamVeraSans-Roman-32"/>
       <use x="127.24609375" xlink:href="#BitstreamVeraSans-Roman-30"/>
      </g>
     </g>
    </g>
    <g id="text_9">
     <!-- sample no -->
     <defs>
      <path id="BitstreamVeraSans-Roman-20"/>
      <path d="M 30.609375 48.390625 
Q 23.390625 48.390625 19.1875 42.75 
Q 14.984375 37.109375 14.984375 27.296875 
Q 14.984375 17.484375 19.15625 11.84375 
Q 23.34375 6.203125 30.609375 6.203125 
Q 37.796875 6.203125 41.984375 11.859375 
Q 46.1875 17.53125 46.1875 27.296875 
Q 46.1875 37.015625 41.984375 42.703125 
Q 37.796875 48.390625 30.609375 48.390625 
M 30.609375 56 
Q 42.328125 56 49.015625 48.375 
Q 55.71875 40.765625 55.71875 27.296875 
Q 55.71875 13.875 49.015625 6.21875 
Q 42.328125 -1.421875 30.609375 -1.421875 
Q 18.84375 -1.421875 12.171875 6.21875 
Q 5.515625 13.875 5.515625 27.296875 
Q 5.515625 40.765625 12.171875 48.375 
Q 18.84375 56 30.609375 56 
" id="BitstreamVeraSans-Roman-6f"/>
      <path d="M 52 44.1875 
Q 55.375 50.25 60.0625 53.125 
Q 64.75 56 71.09375 56 
Q 79.640625 56 84.28125 50.015625 
Q 88.921875 44.046875 88.921875 33.015625 
L 88.921875 0 
L 79.890625 0 
L 79.890625 32.71875 
Q 79.890625 40.578125 77.09375 44.375 
Q 74.3125 48.1875 68.609375 48.1875 
Q 61.625 48.1875 57.5625 43.546875 
Q 53.515625 38.921875 53.515625 30.90625 
L 53.515625 0 
L 44.484375 0 
L 44.484375 32.71875 
Q 44.484375 40.625 41.703125 44.40625 
Q 38.921875 48.1875 33.109375 48.1875 
Q 26.21875 48.1875 22.15625 43.53125 
Q 18.109375 38.875 18.109375 30.90625 
L 18.109375 0 
L 9.078125 0 
L 9.078125 54.6875 
L 18.109375 54.6875 
L 18.109375 46.1875 
Q 21.1875 51.21875 25.484375 53.609375 
Q 29.78125 56 35.6875 56 
Q 41.65625 56 45.828125 52.96875 
Q 50 49.953125 52 44.1875 
" id="BitstreamVeraSans-Roman-6d"/>
      <path d="M 54.890625 33.015625 
L 54.890625 0 
L 45.90625 0 
L 45.90625 32.71875 
Q 45.90625 40.484375 42.875 44.328125 
Q 39.84375 48.1875 33.796875 48.1875 
Q 26.515625 48.1875 22.3125 43.546875 
Q 18.109375 38.921875 18.109375 30.90625 
L 18.109375 0 
L 9.078125 0 
L 9.078125 54.6875 
L 18.109375 54.6875 
L 18.109375 46.1875 
Q 21.34375 51.125 25.703125 53.5625 
Q 30.078125 56 35.796875 56 
Q 45.21875 56 50.046875 50.171875 
Q 54.890625 44.34375 54.890625 33.015625 
" id="BitstreamVeraSans-Roman-6e"/>
      <path d="M 34.28125 27.484375 
Q 23.390625 27.484375 19.1875 25 
Q 14.984375 22.515625 14.984375 16.5 
Q 14.984375 11.71875 18.140625 8.90625 
Q 21.296875 6.109375 26.703125 6.109375 
Q 34.1875 6.109375 38.703125 11.40625 
Q 43.21875 16.703125 43.21875 25.484375 
L 43.21875 27.484375 
z
M 52.203125 31.203125 
L 52.203125 0 
L 43.21875 0 
L 43.21875 8.296875 
Q 40.140625 3.328125 35.546875 0.953125 
Q 30.953125 -1.421875 24.3125 -1.421875 
Q 15.921875 -1.421875 10.953125 3.296875 
Q 6 8.015625 6 15.921875 
Q 6 25.140625 12.171875 29.828125 
Q 18.359375 34.515625 30.609375 34.515625 
L 43.21875 34.515625 
L 43.21875 35.40625 
Q 43.21875 41.609375 39.140625 45 
Q 35.0625 48.390625 27.6875 48.390625 
Q 23 48.390625 18.546875 47.265625 
Q 14.109375 46.140625 10.015625 43.890625 
L 10.015625 52.203125 
Q 14.9375 54.109375 19.578125 55.046875 
Q 24.21875 56 28.609375 56 
Q 40.484375 56 46.34375 49.84375 
Q 52.203125 43.703125 52.203125 31.203125 
" id="BitstreamVeraSans-Roman-61"/>
      <path d="M 56.203125 29.59375 
L 56.203125 25.203125 
L 14.890625 25.203125 
Q 15.484375 15.921875 20.484375 11.0625 
Q 25.484375 6.203125 34.421875 6.203125 
Q 39.59375 6.203125 44.453125 7.46875 
Q 49.3125 8.734375 54.109375 11.28125 
L 54.109375 2.78125 
Q 49.265625 0.734375 44.1875 -0.34375 
Q 39.109375 -1.421875 33.890625 -1.421875 
Q 20.796875 -1.421875 13.15625 6.1875 
Q 5.515625 13.8125 5.515625 26.8125 
Q 5.515625 40.234375 12.765625 48.109375 
Q 20.015625 56 32.328125 56 
Q 43.359375 56 49.78125 48.890625 
Q 56.203125 41.796875 56.203125 29.59375 
M 47.21875 32.234375 
Q 47.125 39.59375 43.09375 43.984375 
Q 39.0625 48.390625 32.421875 48.390625 
Q 24.90625 48.390625 20.390625 44.140625 
Q 15.875 39.890625 15.1875 32.171875 
z
" id="BitstreamVeraSans-Roman-65"/>
      <path d="M 18.109375 8.203125 
L 18.109375 -20.796875 
L 9.078125 -20.796875 
L 9.078125 54.6875 
L 18.109375 54.6875 
L 18.109375 46.390625 
Q 20.953125 51.265625 25.265625 53.625 
Q 29.59375 56 35.59375 56 
Q 45.5625 56 51.78125 48.09375 
Q 58.015625 40.1875 58.015625 27.296875 
Q 58.015625 14.40625 51.78125 6.484375 
Q 45.5625 -1.421875 35.59375 -1.421875 
Q 29.59375 -1.421875 25.265625 0.953125 
Q 20.953125 3.328125 18.109375 8.203125 
M 48.6875 27.296875 
Q 48.6875 37.203125 44.609375 42.84375 
Q 40.53125 48.484375 33.40625 48.484375 
Q 26.265625 48.484375 22.1875 42.84375 
Q 18.109375 37.203125 18.109375 27.296875 
Q 18.109375 17.390625 22.1875 11.75 
Q 26.265625 6.109375 33.40625 6.109375 
Q 40.53125 6.109375 44.609375 11.75 
Q 48.6875 17.390625 48.6875 27.296875 
" id="BitstreamVeraSans-Roman-70"/>
      <path d="M 44.28125 53.078125 
L 44.28125 44.578125 
Q 40.484375 46.53125 36.375 47.5 
Q 32.28125 48.484375 27.875 48.484375 
Q 21.1875 48.484375 17.84375 46.4375 
Q 14.5 44.390625 14.5 40.28125 
Q 14.5 37.15625 16.890625 35.375 
Q 19.28125 33.59375 26.515625 31.984375 
L 29.59375 31.296875 
Q 39.15625 29.25 43.1875 25.515625 
Q 47.21875 21.78125 47.21875 15.09375 
Q 47.21875 7.46875 41.1875 3.015625 
Q 35.15625 -1.421875 24.609375 -1.421875 
Q 20.21875 -1.421875 15.453125 -0.5625 
Q 10.6875 0.296875 5.421875 2 
L 5.421875 11.28125 
Q 10.40625 8.6875 15.234375 7.390625 
Q 20.0625 6.109375 24.8125 6.109375 
Q 31.15625 6.109375 34.5625 8.28125 
Q 37.984375 10.453125 37.984375 14.40625 
Q 37.984375 18.0625 35.515625 20.015625 
Q 33.0625 21.96875 24.703125 23.78125 
L 21.578125 24.515625 
Q 13.234375 26.265625 9.515625 29.90625 
Q 5.8125 33.546875 5.8125 39.890625 
Q 5.8125 47.609375 11.28125 51.796875 
Q 16.75 56 26.8125 56 
Q 31.78125 56 36.171875 55.265625 
Q 40.578125 54.546875 44.28125 53.078125 
" id="BitstreamVeraSans-Roman-73"/>
      <path d="M 9.421875 75.984375 
L 18.40625 75.984375 
L 18.40625 0 
L 9.421875 0 
z
" id="BitstreamVeraSans-Roman-6c"/>
     </defs>
     <g transform="translate(207.47265625 274.4765625)scale(0.1 -0.1)">
      <use xlink:href="#BitstreamVeraSans-Roman-73"/>
      <use x="52.099609375" xlink:href="#BitstreamVeraSans-Roman-61"/>
      <use x="113.37890625" xlink:href="#BitstreamVeraSans-Roman-6d"/>
      <use x="210.791015625" xlink:href="#BitstreamVeraSans-Roman-70"/>
      <use x="274.267578125" xlink:href="#BitstreamVeraSans-Roman-6c"/>
      <use x="302.05078125" xlink:href="#BitstreamVeraSans-Roman-65"/>
      <use x="363.57421875" xlink:href="#BitstreamVeraSans-Roman-20"/>
      <use x="395.361328125" xlink:href="#BitstreamVeraSans-Roman-6e"/>
      <use x="458.740234375" xlink:href="#BitstreamVeraSans-Roman-6f"/>
     </g>
    </g>
   </g>
   <g id="matplotlib.axis_2">
    <g id="ytick_1">
     <g id="line2d_18">
      <defs>
       <path d="M 0 0 
L 4 0 
" id="m620ad18210" style="stroke:#000000;stroke-width:0.5;"/>
      </defs>
      <g>
       <use style="stroke:#000000;stroke-width:0.5;" x="55.3" xlink:href="#m620ad18210" y="248.2"/>
      </g>
     </g>
     <g id="line2d_19">
      <defs>
       <path d="M 0 0 
L -4 0 
" id="m59605c801f" style="stroke:#000000;stroke-width:0.5;"/>
      </defs>
      <g>
       <use style="stroke:#000000;stroke-width:0.5;" x="411.6375" xlink:href="#m59605c801f" y="248.2"/>
      </g>
     </g>
     <g id="text_10">
      <!-- 0 -->
      <g transform="translate(44.9375 250.959375)scale(0.1 -0.1)">
       <use xlink:href="#BitstreamVeraSans-Roman-30"/>
      </g>
     </g>
    </g>
    <g id="ytick_2">
     <g id="line2d_20">
      <g>
       <use style="stroke:#000000;stroke-width:0.5;" x="55.3" xlink:href="#m620ad18210" y="211.133333333"/>
      </g>
     </g>
     <g id="line2d_21">
      <g>
       <use style="stroke:#000000;stroke-width:0.5;" x="411.6375" xlink:href="#m59605c801f" y="211.133333333"/>
      </g>
     </g>
     <g id="text_11">
      <!-- 200 -->
      <g transform="translate(32.2125 213.892708333)scale(0.1 -0.1)">
       <use xlink:href="#BitstreamVeraSans-Roman-32"/>
       <use x="63.623046875" xlink:href="#BitstreamVeraSans-Roman-30"/>
       <use x="127.24609375" xlink:href="#BitstreamVeraSans-Roman-30"/>
      </g>
     </g>
    </g>
    <g id="ytick_3">
     <g id="line2d_22">
      <g>
       <use style="stroke:#000000;stroke-width:0.5;" x="55.3" xlink:href="#m620ad18210" y="174.066666667"/>
      </g>
     </g>
     <g id="line2d_23">
      <g>
       <use style="stroke:#000000;stroke-width:0.5;" x="411.6375" xlink:href="#m59605c801f" y="174.066666667"/>
      </g>
     </g>
     <g id="text_12">
      <!-- 400 -->
      <g transform="translate(32.2125 176.826041667)scale(0.1 -0.1)">
       <use xlink:href="#BitstreamVeraSans-Roman-34"/>
       <use x="63.623046875" xlink:href="#BitstreamVeraSans-Roman-30"/>
       <use x="127.24609375" xlink:href="#BitstreamVeraSans-Roman-30"/>
      </g>
     </g>
    </g>
    <g id="ytick_4">
     <g id="line2d_24">
      <g>
       <use style="stroke:#000000;stroke-width:0.5;" x="55.3" xlink:href="#m620ad18210" y="137.0"/>
      </g>
     </g>
     <g id="line2d_25">
      <g>
       <use style="stroke:#000000;stroke-width:0.5;" x="411.6375" xlink:href="#m59605c801f" y="137.0"/>
      </g>
     </g>
     <g id="text_13">
      <!-- 600 -->
      <g transform="translate(32.2125 139.759375)scale(0.1 -0.1)">
       <use xlink:href="#BitstreamVeraSans-Roman-36"/>
       <use x="63.623046875" xlink:href="#BitstreamVeraSans-Roman-30"/>
       <use x="127.24609375" xlink:href="#BitstreamVeraSans-Roman-30"/>
      </g>
     </g>
    </g>
    <g id="ytick_5">
     <g id="line2d_26">
      <g>
       <use style="stroke:#000000;stroke-width:0.5;" x="55.3" xlink:href="#m620ad18210" y="99.9333333333"/>
      </g>
     </g>
     <g id="line2d_27">
      <g>
       <use style="stroke:#000000;stroke-width:0.5;" x="411.6375" xlink:href="#m59605c801f" y="99.9333333333"/>
      </g>
     </g>
     <g id="text_14">
      <!-- 800 -->
      <g transform="translate(32.2125 102.692708333)scale(0.1 -0.1)">
       <use xlink:href="#BitstreamVeraSans-Roman-38"/>
       <use x="63.623046875" xlink:href="#BitstreamVeraSans-Roman-30"/>
       <use x="127.24609375" xlink:href="#BitstreamVeraSans-Roman-30"/>
      </g>
     </g>
    </g>
    <g id="ytick_6">
     <g id="line2d_28">
      <g>
       <use style="stroke:#000000;stroke-width:0.5;" x="55.3" xlink:href="#m620ad18210" y="62.8666666667"/>
      </g>
     </g>
     <g id="line2d_29">
      <g>
       <use style="stroke:#000000;stroke-width:0.5;" x="411.6375" xlink:href="#m59605c801f" y="62.8666666667"/>
      </g>
     </g>
     <g id="text_15">
      <!-- 1000 -->
      <g transform="translate(25.85 65.6260416667)scale(0.1 -0.1)">
       <use xlink:href="#BitstreamVeraSans-Roman-31"/>
       <use x="63.623046875" xlink:href="#BitstreamVeraSans-Roman-30"/>
       <use x="127.24609375" xlink:href="#BitstreamVeraSans-Roman-30"/>
       <use x="190.869140625" xlink:href="#BitstreamVeraSans-Roman-30"/>
      </g>
     </g>
    </g>
    <g id="ytick_7">
     <g id="line2d_30">
      <g>
       <use style="stroke:#000000;stroke-width:0.5;" x="55.3" xlink:href="#m620ad18210" y="25.8"/>
      </g>
     </g>
     <g id="line2d_31">
      <g>
       <use style="stroke:#000000;stroke-width:0.5;" x="411.6375" xlink:href="#m59605c801f" y="25.8"/>
      </g>
     </g>
     <g id="text_16">
      <!-- 1200 -->
      <g transform="translate(25.85 28.559375)scale(0.1 -0.1)">
       <use xlink:href="#BitstreamVeraSans-Roman-31"/>
       <use x="63.623046875" xlink:href="#BitstreamVeraSans-Roman-32"/>
       <use x="127.24609375" xlink:href="#BitstreamVeraSans-Roman-30"/>
       <use x="190.869140625" xlink:href="#BitstreamVeraSans-Roman-30"/>
      </g>
     </g>
    </g>
    <g id="text_17">
     <!-- Value -->
     <defs>
      <path d="M 8.5 21.578125 
L 8.5 54.6875 
L 17.484375 54.6875 
L 17.484375 21.921875 
Q 17.484375 14.15625 20.5 10.265625 
Q 23.53125 6.390625 29.59375 6.390625 
Q 36.859375 6.390625 41.078125 11.03125 
Q 45.3125 15.671875 45.3125 23.6875 
L 45.3125 54.6875 
L 54.296875 54.6875 
L 54.296875 0 
L 45.3125 0 
L 45.3125 8.40625 
Q 42.046875 3.421875 37.71875 1 
Q 33.40625 -1.421875 27.6875 -1.421875 
Q 18.265625 -1.421875 13.375 4.4375 
Q 8.5 10.296875 8.5 21.578125 
" id="BitstreamVeraSans-Roman-75"/>
      <path d="M 28.609375 0 
L 0.78125 72.90625 
L 11.078125 72.90625 
L 34.1875 11.53125 
L 57.328125 72.90625 
L 67.578125 72.90625 
L 39.796875 0 
z
" id="BitstreamVeraSans-Roman-56"/>
     </defs>
     <g transform="translate(18.7703125 151.11328125)rotate(-90.0)scale(0.1 -0.1)">
      <use xlink:href="#BitstreamVeraSans-Roman-56"/>
      <use x="68.298828125" xlink:href="#BitstreamVeraSans-Roman-61"/>
      <use x="129.578125" xlink:href="#BitstreamVeraSans-Roman-6c"/>
      <use x="157.361328125" xlink:href="#BitstreamVeraSans-Roman-75"/>
      <use x="220.740234375" xlink:href="#BitstreamVeraSans-Roman-65"/>
     </g>
    </g>
   </g>
   <g id="text_18">
    <!-- 100 random samples from RDD -->
    <defs>
     <path d="M 45.40625 46.390625 
L 45.40625 75.984375 
L 54.390625 75.984375 
L 54.390625 0 
L 45.40625 0 
L 45.40625 8.203125 
Q 42.578125 3.328125 38.25 0.953125 
Q 33.9375 -1.421875 27.875 -1.421875 
Q 17.96875 -1.421875 11.734375 6.484375 
Q 5.515625 14.40625 5.515625 27.296875 
Q 5.515625 40.1875 11.734375 48.09375 
Q 17.96875 56 27.875 56 
Q 33.9375 56 38.25 53.625 
Q 42.578125 51.265625 45.40625 46.390625 
M 14.796875 27.296875 
Q 14.796875 17.390625 18.875 11.75 
Q 22.953125 6.109375 30.078125 6.109375 
Q 37.203125 6.109375 41.296875 11.75 
Q 45.40625 17.390625 45.40625 27.296875 
Q 45.40625 37.203125 41.296875 42.84375 
Q 37.203125 48.484375 30.078125 48.484375 
Q 22.953125 48.484375 18.875 42.84375 
Q 14.796875 37.203125 14.796875 27.296875 
" id="BitstreamVeraSans-Roman-64"/>
     <path d="M 44.390625 34.1875 
Q 47.5625 33.109375 50.5625 29.59375 
Q 53.5625 26.078125 56.59375 19.921875 
L 66.609375 0 
L 56 0 
L 46.6875 18.703125 
Q 43.0625 26.03125 39.671875 28.421875 
Q 36.28125 30.8125 30.421875 30.8125 
L 19.671875 30.8125 
L 19.671875 0 
L 9.8125 0 
L 9.8125 72.90625 
L 32.078125 72.90625 
Q 44.578125 72.90625 50.734375 67.671875 
Q 56.890625 62.453125 56.890625 51.90625 
Q 56.890625 45.015625 53.6875 40.46875 
Q 50.484375 35.9375 44.390625 34.1875 
M 19.671875 64.796875 
L 19.671875 38.921875 
L 32.078125 38.921875 
Q 39.203125 38.921875 42.84375 42.21875 
Q 46.484375 45.515625 46.484375 51.90625 
Q 46.484375 58.296875 42.84375 61.546875 
Q 39.203125 64.796875 32.078125 64.796875 
z
" id="BitstreamVeraSans-Roman-52"/>
     <path d="M 37.109375 75.984375 
L 37.109375 68.5 
L 28.515625 68.5 
Q 23.6875 68.5 21.796875 66.546875 
Q 19.921875 64.59375 19.921875 59.515625 
L 19.921875 54.6875 
L 34.71875 54.6875 
L 34.71875 47.703125 
L 19.921875 47.703125 
L 19.921875 0 
L 10.890625 0 
L 10.890625 47.703125 
L 2.296875 47.703125 
L 2.296875 54.6875 
L 10.890625 54.6875 
L 10.890625 58.5 
Q 10.890625 67.625 15.140625 71.796875 
Q 19.390625 75.984375 28.609375 75.984375 
z
" id="BitstreamVeraSans-Roman-66"/>
     <path d="M 41.109375 46.296875 
Q 39.59375 47.171875 37.8125 47.578125 
Q 36.03125 48 33.890625 48 
Q 26.265625 48 22.1875 43.046875 
Q 18.109375 38.09375 18.109375 28.8125 
L 18.109375 0 
L 9.078125 0 
L 9.078125 54.6875 
L 18.109375 54.6875 
L 18.109375 46.1875 
Q 20.953125 51.171875 25.484375 53.578125 
Q 30.03125 56 36.53125 56 
Q 37.453125 56 38.578125 55.875 
Q 39.703125 55.765625 41.0625 55.515625 
z
" id="BitstreamVeraSans-Roman-72"/>
     <path d="M 19.671875 64.796875 
L 19.671875 8.109375 
L 31.59375 8.109375 
Q 46.6875 8.109375 53.6875 14.9375 
Q 60.6875 21.78125 60.6875 36.53125 
Q 60.6875 51.171875 53.6875 57.984375 
Q 46.6875 64.796875 31.59375 64.796875 
z
M 9.8125 72.90625 
L 30.078125 72.90625 
Q 51.265625 72.90625 61.171875 64.09375 
Q 71.09375 55.28125 71.09375 36.53125 
Q 71.09375 17.671875 61.125 8.828125 
Q 51.171875 0 30.078125 0 
L 9.8125 0 
z
" id="BitstreamVeraSans-Roman-44"/>
    </defs>
    <g transform="translate(138.67625 20.8)scale(0.12 -0.12)">
     <use xlink:href="#BitstreamVeraSans-Roman-31"/>
     <use x="63.623046875" xlink:href="#BitstreamVeraSans-Roman-30"/>
     <use x="127.24609375" xlink:href="#BitstreamVeraSans-Roman-30"/>
     <use x="190.869140625" xlink:href="#BitstreamVeraSans-Roman-20"/>
     <use x="222.65625" xlink:href="#BitstreamVeraSans-Roman-72"/>
     <use x="263.76953125" xlink:href="#BitstreamVeraSans-Roman-61"/>
     <use x="325.048828125" xlink:href="#BitstreamVeraSans-Roman-6e"/>
     <use x="388.427734375" xlink:href="#BitstreamVeraSans-Roman-64"/>
     <use x="451.904296875" xlink:href="#BitstreamVeraSans-Roman-6f"/>
     <use x="513.0859375" xlink:href="#BitstreamVeraSans-Roman-6d"/>
     <use x="610.498046875" xlink:href="#BitstreamVeraSans-Roman-20"/>
     <use x="642.28515625" xlink:href="#BitstreamVeraSans-Roman-73"/>
     <use x="694.384765625" xlink:href="#BitstreamVeraSans-Roman-61"/>
     <use x="755.6640625" xlink:href="#BitstreamVeraSans-Roman-6d"/>
     <use x="853.076171875" xlink:href="#BitstreamVeraSans-Roman-70"/>
     <use x="916.552734375" xlink:href="#BitstreamVeraSans-Roman-6c"/>
     <use x="944.3359375" xlink:href="#BitstreamVeraSans-Roman-65"/>
     <use x="1005.859375" xlink:href="#BitstreamVeraSans-Roman-73"/>
     <use x="1057.958984375" xlink:href="#BitstreamVeraSans-Roman-20"/>
     <use x="1089.74609375" xlink:href="#BitstreamVeraSans-Roman-66"/>
     <use x="1124.951171875" xlink:href="#BitstreamVeraSans-Roman-72"/>
     <use x="1166.033203125" xlink:href="#BitstreamVeraSans-Roman-6f"/>
     <use x="1227.21484375" xlink:href="#BitstreamVeraSans-Roman-6d"/>
     <use x="1324.626953125" xlink:href="#BitstreamVeraSans-Roman-20"/>
     <use x="1356.4140625" xlink:href="#BitstreamVeraSans-Roman-52"/>
     <use x="1425.896484375" xlink:href="#BitstreamVeraSans-Roman-44"/>
     <use x="1502.8984375" xlink:href="#BitstreamVeraSans-Roman-44"/>
    </g>
   </g>
  </g>
  <g id="text_19">
   <!-- CIS 700-003 student-harip -->
   <defs>
    <path d="M 54.890625 33.015625 
L 54.890625 0 
L 45.90625 0 
L 45.90625 32.71875 
Q 45.90625 40.484375 42.875 44.328125 
Q 39.84375 48.1875 33.796875 48.1875 
Q 26.515625 48.1875 22.3125 43.546875 
Q 18.109375 38.921875 18.109375 30.90625 
L 18.109375 0 
L 9.078125 0 
L 9.078125 75.984375 
L 18.109375 75.984375 
L 18.109375 46.1875 
Q 21.34375 51.125 25.703125 53.5625 
Q 30.078125 56 35.796875 56 
Q 45.21875 56 50.046875 50.171875 
Q 54.890625 44.34375 54.890625 33.015625 
" id="BitstreamVeraSans-Roman-68"/>
    <path d="M 9.8125 72.90625 
L 19.671875 72.90625 
L 19.671875 0 
L 9.8125 0 
z
" id="BitstreamVeraSans-Roman-49"/>
    <path d="M 4.890625 31.390625 
L 31.203125 31.390625 
L 31.203125 23.390625 
L 4.890625 23.390625 
z
" id="BitstreamVeraSans-Roman-2d"/>
    <path d="M 53.515625 70.515625 
L 53.515625 60.890625 
Q 47.90625 63.578125 42.921875 64.890625 
Q 37.9375 66.21875 33.296875 66.21875 
Q 25.25 66.21875 20.875 63.09375 
Q 16.5 59.96875 16.5 54.203125 
Q 16.5 49.359375 19.40625 46.890625 
Q 22.3125 44.4375 30.421875 42.921875 
L 36.375 41.703125 
Q 47.40625 39.59375 52.65625 34.296875 
Q 57.90625 29 57.90625 20.125 
Q 57.90625 9.515625 50.796875 4.046875 
Q 43.703125 -1.421875 29.984375 -1.421875 
Q 24.8125 -1.421875 18.96875 -0.25 
Q 13.140625 0.921875 6.890625 3.21875 
L 6.890625 13.375 
Q 12.890625 10.015625 18.65625 8.296875 
Q 24.421875 6.59375 29.984375 6.59375 
Q 38.421875 6.59375 43.015625 9.90625 
Q 47.609375 13.234375 47.609375 19.390625 
Q 47.609375 24.75 44.3125 27.78125 
Q 41.015625 30.8125 33.5 32.328125 
L 27.484375 33.5 
Q 16.453125 35.6875 11.515625 40.375 
Q 6.59375 45.0625 6.59375 53.421875 
Q 6.59375 63.09375 13.40625 68.65625 
Q 20.21875 74.21875 32.171875 74.21875 
Q 37.3125 74.21875 42.625 73.28125 
Q 47.953125 72.359375 53.515625 70.515625 
" id="BitstreamVeraSans-Roman-53"/>
    <path d="M 18.3125 70.21875 
L 18.3125 54.6875 
L 36.8125 54.6875 
L 36.8125 47.703125 
L 18.3125 47.703125 
L 18.3125 18.015625 
Q 18.3125 11.328125 20.140625 9.421875 
Q 21.96875 7.515625 27.59375 7.515625 
L 36.8125 7.515625 
L 36.8125 0 
L 27.59375 0 
Q 17.1875 0 13.234375 3.875 
Q 9.28125 7.765625 9.28125 18.015625 
L 9.28125 47.703125 
L 2.6875 47.703125 
L 2.6875 54.6875 
L 9.28125 54.6875 
L 9.28125 70.21875 
z
" id="BitstreamVeraSans-Roman-74"/>
    <path d="M 64.40625 67.28125 
L 64.40625 56.890625 
Q 59.421875 61.53125 53.78125 63.8125 
Q 48.140625 66.109375 41.796875 66.109375 
Q 29.296875 66.109375 22.65625 58.46875 
Q 16.015625 50.828125 16.015625 36.375 
Q 16.015625 21.96875 22.65625 14.328125 
Q 29.296875 6.6875 41.796875 6.6875 
Q 48.140625 6.6875 53.78125 8.984375 
Q 59.421875 11.28125 64.40625 15.921875 
L 64.40625 5.609375 
Q 59.234375 2.09375 53.4375 0.328125 
Q 47.65625 -1.421875 41.21875 -1.421875 
Q 24.65625 -1.421875 15.125 8.703125 
Q 5.609375 18.84375 5.609375 36.375 
Q 5.609375 53.953125 15.125 64.078125 
Q 24.65625 74.21875 41.21875 74.21875 
Q 47.75 74.21875 53.53125 72.484375 
Q 59.328125 70.75 64.40625 67.28125 
" id="BitstreamVeraSans-Roman-43"/>
    <path d="M 8.203125 72.90625 
L 55.078125 72.90625 
L 55.078125 68.703125 
L 28.609375 0 
L 18.3125 0 
L 43.21875 64.59375 
L 8.203125 64.59375 
z
" id="BitstreamVeraSans-Roman-37"/>
    <path d="M 9.421875 54.6875 
L 18.40625 54.6875 
L 18.40625 0 
L 9.421875 0 
z
M 9.421875 75.984375 
L 18.40625 75.984375 
L 18.40625 64.59375 
L 9.421875 64.59375 
z
" id="BitstreamVeraSans-Roman-69"/>
    <path d="M 40.578125 39.3125 
Q 47.65625 37.796875 51.625 33 
Q 55.609375 28.21875 55.609375 21.1875 
Q 55.609375 10.40625 48.1875 4.484375 
Q 40.765625 -1.421875 27.09375 -1.421875 
Q 22.515625 -1.421875 17.65625 -0.515625 
Q 12.796875 0.390625 7.625 2.203125 
L 7.625 11.71875 
Q 11.71875 9.328125 16.59375 8.109375 
Q 21.484375 6.890625 26.8125 6.890625 
Q 36.078125 6.890625 40.9375 10.546875 
Q 45.796875 14.203125 45.796875 21.1875 
Q 45.796875 27.640625 41.28125 31.265625 
Q 36.765625 34.90625 28.71875 34.90625 
L 20.21875 34.90625 
L 20.21875 43.015625 
L 29.109375 43.015625 
Q 36.375 43.015625 40.234375 45.921875 
Q 44.09375 48.828125 44.09375 54.296875 
Q 44.09375 59.90625 40.109375 62.90625 
Q 36.140625 65.921875 28.71875 65.921875 
Q 24.65625 65.921875 20.015625 65.03125 
Q 15.375 64.15625 9.8125 62.3125 
L 9.8125 71.09375 
Q 15.4375 72.65625 20.34375 73.4375 
Q 25.25 74.21875 29.59375 74.21875 
Q 40.828125 74.21875 47.359375 69.109375 
Q 53.90625 64.015625 53.90625 55.328125 
Q 53.90625 49.265625 50.4375 45.09375 
Q 46.96875 40.921875 40.578125 39.3125 
" id="BitstreamVeraSans-Roman-33"/>
   </defs>
   <g transform="translate(297.8821875 283.0403125)scale(0.1 -0.1)">
    <use xlink:href="#BitstreamVeraSans-Roman-43"/>
    <use x="69.82421875" xlink:href="#BitstreamVeraSans-Roman-49"/>
    <use x="99.31640625" xlink:href="#BitstreamVeraSans-Roman-53"/>
    <use x="162.79296875" xlink:href="#BitstreamVeraSans-Roman-20"/>
    <use x="194.580078125" xlink:href="#BitstreamVeraSans-Roman-37"/>
    <use x="258.203125" xlink:href="#BitstreamVeraSans-Roman-30"/>
    <use x="321.826171875" xlink:href="#BitstreamVeraSans-Roman-30"/>
    <use x="385.44921875" xlink:href="#BitstreamVeraSans-Roman-2d"/>
    <use x="421.533203125" xlink:href="#BitstreamVeraSans-Roman-30"/>
    <use x="485.15625" xlink:href="#BitstreamVeraSans-Roman-30"/>
    <use x="548.779296875" xlink:href="#BitstreamVeraSans-Roman-33"/>
    <use x="612.40234375" xlink:href="#BitstreamVeraSans-Roman-20"/>
    <use x="644.189453125" xlink:href="#BitstreamVeraSans-Roman-73"/>
    <use x="696.2890625" xlink:href="#BitstreamVeraSans-Roman-74"/>
    <use x="735.498046875" xlink:href="#BitstreamVeraSans-Roman-75"/>
    <use x="798.876953125" xlink:href="#BitstreamVeraSans-Roman-64"/>
    <use x="862.353515625" xlink:href="#BitstreamVeraSans-Roman-65"/>
    <use x="923.876953125" xlink:href="#BitstreamVeraSans-Roman-6e"/>
    <use x="987.255859375" xlink:href="#BitstreamVeraSans-Roman-74"/>
    <use x="1026.46484375" xlink:href="#BitstreamVeraSans-Roman-2d"/>
    <use x="1062.548828125" xlink:href="#BitstreamVeraSans-Roman-68"/>
    <use x="1125.927734375" xlink:href="#BitstreamVeraSans-Roman-61"/>
    <use x="1187.20703125" xlink:href="#BitstreamVeraSans-Roman-72"/>
    <use x="1228.3203125" xlink:href="#BitstreamVeraSans-Roman-69"/>
    <use x="1256.103515625" xlink:href="#BitstreamVeraSans-Roman-70"/>
   </g>
  </g>
 </g>
 <defs>
  <clipPath id="p8cdad4bb98">
   <rect height="222.4" width="356.3375" x="55.3" y="25.8"/>
  </clipPath>
 </defs>
</svg>
